mtllib paperbag_ps.mtl
g Mesh1 Model
v 465.846008 2500.000000 -1989.709961
v 465.846008 2500.000000 -489.709015
v 2465.850098 2500.000000 -489.709015
v 2465.850098 2500.000000 -1989.709961
v 465.846008 0.000000 -489.709015
v 2465.850098 0.000000 -489.709015
v 2465.850098 0.000000 -1989.709961
v 465.846008 0.000000 -1989.709961
vt 0.434965 0.426987
vt 0.456802 0.622760
vt 0.195772 0.651876
vt 0.173935 0.456104
vt 0.456802 0.622760
vt 0.493198 0.949047
vt 0.232167 0.978163
vt 0.195772 0.651876
vt 0.195772 0.651876
vt 0.232167 0.978163
vt 0.036395 1.000000
vt 0.000000 0.673713
vt 0.913605 0.571806
vt 0.950000 0.898093
vt 0.688970 0.927210
vt 0.652575 0.600923
vt 0.652575 0.600923
vt 0.688970 0.927210
vt 0.493198 0.949047
vt 0.456802 0.622760
vn 0.000000 1.000000 0.000000
vn 0.000000 1.000000 0.000000
vn 0.000000 1.000000 0.000000
vn 0.000000 1.000000 0.000000
vn 0.000000 0.000000 1.000000
vn 0.000000 0.000000 1.000000
vn 0.000000 0.000000 1.000000
vn 0.000000 0.000000 1.000000
vn 1.000000 0.000000 0.000000
vn 1.000000 0.000000 0.000000
vn 1.000000 0.000000 0.000000
vn 1.000000 0.000000 0.000000
vn 0.000000 0.000000 -1.000000
vn 0.000000 0.000000 -1.000000
vn 0.000000 0.000000 -1.000000
vn 0.000000 0.000000 -1.000000
vn -1.000000 0.000000 0.000000
vn -1.000000 0.000000 0.000000
vn -1.000000 0.000000 0.000000
vn -1.000000 0.000000 0.000000
usemtl Material combinado: Mesh1 Model
f 1/1/1 2/2/2 3/3/3
f 3/3/3 4/4/4 1/1/1
f 2/5/5 5/6/6 6/7/7
f 6/7/7 3/8/8 2/5/5
f 3/9/9 6/10/10 7/11/11
f 7/11/11 4/12/12 3/9/9
f 4/13/13 7/14/14 8/15/15
f 8/15/15 1/16/16 4/13/13
f 1/17/17 8/18/18 5/19/19
f 5/19/19 2/20/20 1/17/17
